# xmcd
#
# Track frame offsets: 
#        150
#        23248
#        38990
#        71681
#        105903
#        138974
#        148707
#        182090
#        199031
#        222183
#        241151
#
# Disc length: 3522 seconds
#
# Revision: 1
# Processed by: cddbd v1.5.2PL0 Copyright (c) Steve Scherf et al.
# Submitted via: ExactAudioCopy v0.99pb4
#
DISCID=990dc00b
DTITLE=Jody Grind - Jody Grind - The Complete - CD2 (Far Canal)
DYEAR=2009
DGENRE=Progressive Rock
TTITLE0=We've had it 
TTITLE1=Bath sister 
TTITLE2=Jump bed jed 
TTITLE3=O paradiso 
TTITLE4=Plastic shit
TTITLE5=Vegetable oblivion 
TTITLE6=Red worms and lice 
TTITLE7=Ballad for Bridget 
TTITLE8=Night today (Alternate Version) 
TTITLE9=Rock n' Roll man (Single Version)
TTITLE10=Paint it black (Single Version) 
EXTD=
EXTT0=
EXTT1=
EXTT2=
EXTT3=
EXTT4=
EXTT5=
EXTT6=
EXTT7=
EXTT8=
EXTT9=
EXTT10=
PLAYORDER=
